<svg width="34" height="36" viewBox="0 0 34 36" fill="none"
  xmlns="http://www.w3.org/2000/svg">
  <path d="M33.897 33.5737C33.897 34.4022 33.2254 35.0737 32.397 35.0737H29.5684C28.7399 35.0737 28.0684 34.4022 28.0684 33.5737V29.2451H32.397C33.2254 29.2451 33.897 29.9167 33.897 30.7451V33.5737Z" fill="url(#paint0_linear_100_2692)"/>
  <path d="M0 2.42578C0 1.59735 0.671573 0.925781 1.5 0.925781H4.32861C5.15704 0.925781 5.82861 1.59735 5.82861 2.42578V6.75439H1.5C0.671573 6.75439 0 6.08282 0 5.25439V2.42578Z" fill="url(#paint1_linear_100_2692)"/>
  <path d="M11.3843 19.5001C11.3843 18.6717 10.7127 18.0001 9.88428 18.0001H7.32813C6.4997 18.0001 5.82812 17.3285 5.82812 16.5001V6.75195H9.88428C10.7127 6.75195 11.3843 7.42353 11.3843 8.25195V10.7783C11.3843 11.6067 12.0559 12.2783 12.8843 12.2783H15.522C16.3504 12.2783 17.022 12.9499 17.022 13.7783V23.6075H20.9302C21.7586 23.6075 22.4302 22.9359 22.4302 22.1075V13.7783C22.4302 12.9499 23.1017 12.2783 23.9302 12.2783H26.5679C27.3963 12.2783 28.0679 11.6067 28.0679 10.7783V6.75195H32.2056C33.034 6.75195 33.7056 7.42353 33.7056 8.25195V16.5001C33.7056 17.3285 33.034 18.0001 32.2056 18.0001H28.0679V29.2452H12.8843C12.0559 29.2452 11.3843 28.5736 11.3843 27.7452V19.5001Z" fill="url(#paint2_linear_100_2692)"/>
  <path d="M11.2656 2.42578C11.2656 1.59735 11.9372 0.925781 12.7656 0.925781H26.5177C27.3461 0.925781 28.0177 1.59735 28.0177 2.42578V6.75439H12.7656C11.9372 6.75439 11.2656 6.08282 11.2656 5.25439V2.42578Z" fill="url(#paint3_linear_100_2692)"/>
  <defs>
    <linearGradient id="paint0_linear_100_2692" x1="30.9827" y1="29.2451" x2="30.9827" y2="35.0737" gradientUnits="userSpaceOnUse">
      <stop stop-color="#3E11EE"/>
      <stop offset="0.0208333" stop-color="#3603FF"/>
      <stop offset="1" stop-color="#9479FF"/>
    </linearGradient>
    <linearGradient id="paint1_linear_100_2692" x1="2.91431" y1="0.925781" x2="2.91431" y2="6.75439" gradientUnits="userSpaceOnUse">
      <stop stop-color="#3E11EE"/>
      <stop offset="0.0208333" stop-color="#3603FF"/>
      <stop offset="1" stop-color="#9479FF"/>
    </linearGradient>
    <linearGradient id="paint2_linear_100_2692" x1="19.7668" y1="6.75195" x2="19.7668" y2="29.2452" gradientUnits="userSpaceOnUse">
      <stop stop-color="#3E11EE"/>
      <stop offset="0.0208333" stop-color="#3603FF"/>
      <stop offset="1" stop-color="#9479FF"/>
    </linearGradient>
    <linearGradient id="paint3_linear_100_2692" x1="19.6417" y1="0.925781" x2="19.6417" y2="6.75439" gradientUnits="userSpaceOnUse">
      <stop stop-color="#3E11EE"/>
      <stop offset="0.0208333" stop-color="#3603FF"/>
      <stop offset="1" stop-color="#9479FF"/>
    </linearGradient>
  </defs>
</svg>
